hintordertest_Mdd.ufo
<glyph name="uni001E" format="2">
  <advance width="959"/>
  <unicode hex="001E"/>
  <outline>
    <contour>
      <point x="837" y="145" type="curve" smooth="yes"/>
      <point x="888" y="145"/>
      <point x="929" y="181"/>
      <point x="929" y="231" type="curve" smooth="yes"/>
      <point x="929" y="281"/>
      <point x="888" y="317"/>
      <point x="837" y="317" type="curve" smooth="yes"/>
      <point x="786" y="317"/>
      <point x="745" y="281"/>
      <point x="745" y="231" type="curve" smooth="yes"/>
      <point x="745" y="181"/>
      <point x="786" y="145"/>
    </contour>
    <contour>
      <point x="10" y="0" type="line"/>
      <point x="220" y="0" type="line"/>
      <point x="220" y="59" type="line"/>
      <point x="131" y="74" type="line"/>
      <point x="114" y="74" type="line"/>
      <point x="10" y="59" type="line"/>
    </contour>
    <contour>
      <point x="65" y="0" type="line"/>
      <point x="129" y="0" type="line"/>
      <point x="286" y="495" type="line"/>
      <point x="291" y="509" type="line"/>
      <point x="273" y="509" type="line"/>
      <point x="431" y="0" type="line"/>
      <point x="632" y="0" type="line"/>
      <point x="409" y="652" type="line"/>
      <point x="289" y="652" type="line"/>
    </contour>
    <contour>
      <point x="167" y="180" type="line"/>
      <point x="468" y="180" type="line"/>
      <point x="468" y="243" type="line"/>
      <point x="167" y="243" type="line"/>
    </contour>
    <contour>
      <point x="342" y="0" type="line"/>
      <point x="665" y="0" type="line"/>
      <point x="665" y="56" type="line"/>
      <point x="535" y="71" type="line"/>
      <point x="450" y="71" type="line"/>
      <point x="342" y="56" type="line"/>
    </contour>
  </outline>
</glyph>
<glyph name="uni001E" format="2">
  <advance width="1125"/>
  <unicode hex="001E"/>
  <outline>
    <contour>
      <point x="423" y="666" type="line"/>
      <point x="547" y="666" type="line"/>
      <point x="553" y="874" type="line"/>
      <point x="417" y="874" type="line"/>
    </contour>
    <contour>
      <point x="174" y="0" type="line"/>
      <point x="343" y="0" type="line"/>
      <point x="343" y="74" type="line"/>
      <point x="325" y="74" type="line"/>
      <point x="174" y="59" type="line"/>
    </contour>
    <contour>
      <point x="241" y="0" type="curve"/>
      <point x="445" y="0" type="line"/>
      <point x="442" y="103"/>
      <point x="442" y="207"/>
      <point x="442" y="311" type="curve" smooth="yes"/>
      <point x="442" y="342" type="line" smooth="yes"/>
      <point x="442" y="447"/>
      <point x="442" y="551"/>
      <point x="445" y="652" type="curve"/>
      <point x="241" y="652" type="line"/>
      <point x="244" y="549"/>
      <point x="244" y="445"/>
      <point x="244" y="342" type="curve" smooth="yes"/>
      <point x="244" y="310" type="line" smooth="yes"/>
      <point x="244" y="205"/>
      <point x="244" y="101"/>
    </contour>
    <contour>
      <point x="343" y="0" type="line"/>
      <point x="455" y="0" type="line" smooth="yes"/>
      <point x="683" y="0"/>
      <point x="821" y="123"/>
      <point x="821" y="329" type="curve" smooth="yes"/>
      <point x="821" y="525"/>
      <point x="694" y="652"/>
      <point x="472" y="652" type="curve" smooth="yes"/>
      <point x="343" y="652" type="line"/>
      <point x="343" y="590" type="line"/>
      <point x="457" y="590" type="line" smooth="yes"/>
      <point x="556" y="590"/>
      <point x="621" y="498"/>
      <point x="621" y="327" type="curve" smooth="yes"/>
      <point x="621" y="157"/>
      <point x="556" y="62"/>
      <point x="458" y="62" type="curve" smooth="yes"/>
      <point x="343" y="62" type="line"/>
    </contour>
    <contour>
      <point x="174" y="593" type="line"/>
      <point x="325" y="578" type="line"/>
      <point x="343" y="578" type="line"/>
      <point x="343" y="652" type="line"/>
      <point x="174" y="652" type="line"/>
    </contour>
  </outline>
</glyph>
<glyph name="uni001E" format="2">
  <advance width="1062"/>
  <unicode hex="001E"/>
  <outline>
    <contour>
      <point x="28" y="0" type="line"/>
      <point x="197" y="0" type="line"/>
      <point x="197" y="74" type="line"/>
      <point x="179" y="74" type="line"/>
      <point x="28" y="59" type="line"/>
    </contour>
    <contour>
      <point x="716" y="151" type="curve" smooth="yes"/>
      <point x="761" y="151"/>
      <point x="800" y="179"/>
      <point x="800" y="230" type="curve" smooth="yes"/>
      <point x="800" y="280"/>
      <point x="761" y="309"/>
      <point x="716" y="309" type="curve" smooth="yes"/>
      <point x="673" y="309"/>
      <point x="632" y="280"/>
      <point x="632" y="230" type="curve" smooth="yes"/>
      <point x="632" y="179"/>
      <point x="673" y="151"/>
    </contour>
    <contour>
      <point x="948" y="151" type="curve" smooth="yes"/>
      <point x="993" y="151"/>
      <point x="1032" y="179"/>
      <point x="1032" y="230" type="curve" smooth="yes"/>
      <point x="1032" y="280"/>
      <point x="993" y="309"/>
      <point x="948" y="309" type="curve" smooth="yes"/>
      <point x="905" y="309"/>
      <point x="864" y="280"/>
      <point x="864" y="230" type="curve" smooth="yes"/>
      <point x="864" y="179"/>
      <point x="905" y="151"/>
    </contour>
    <contour>
      <point x="95" y="0" type="curve"/>
      <point x="299" y="0" type="line"/>
      <point x="296" y="103"/>
      <point x="296" y="207"/>
      <point x="296" y="311" type="curve" smooth="yes"/>
      <point x="296" y="342" type="line" smooth="yes"/>
      <point x="296" y="447"/>
      <point x="296" y="551"/>
      <point x="299" y="652" type="curve"/>
      <point x="95" y="652" type="line"/>
      <point x="98" y="549"/>
      <point x="98" y="445"/>
      <point x="98" y="342" type="curve" smooth="yes"/>
      <point x="98" y="310" type="line" smooth="yes"/>
      <point x="98" y="205"/>
      <point x="98" y="101"/>
    </contour>
    <contour>
      <point x="197" y="0" type="line"/>
      <point x="564" y="0" type="line"/>
      <point x="571" y="170" type="line"/>
      <point x="477" y="170" type="line"/>
      <point x="453" y="28" type="line"/>
      <point x="488" y="58" type="line"/>
      <point x="197" y="58" type="line"/>
    </contour>
    <contour>
      <point x="197" y="306" type="line"/>
      <point x="415" y="306" type="line"/>
      <point x="415" y="370" type="line"/>
      <point x="197" y="370" type="line"/>
    </contour>
    <contour>
      <point x="400" y="235" type="line"/>
      <point x="463" y="235" type="line"/>
      <point x="463" y="442" type="line"/>
      <point x="400" y="442" type="line"/>
      <point x="385" y="350" type="line"/>
      <point x="385" y="332" type="line"/>
    </contour>
    <contour>
      <point x="28" y="593" type="line"/>
      <point x="179" y="578" type="line"/>
      <point x="197" y="578" type="line"/>
      <point x="197" y="652" type="line"/>
      <point x="28" y="652" type="line"/>
    </contour>
    <contour>
      <point x="457" y="482" type="line"/>
      <point x="551" y="482" type="line"/>
      <point x="544" y="652" type="line"/>
      <point x="197" y="652" type="line"/>
      <point x="197" y="593" type="line"/>
      <point x="468" y="593" type="line"/>
      <point x="433" y="623" type="line"/>
    </contour>
  </outline>
</glyph>
<glyph name="uni001E" format="2">
  <advance width="1345"/>
  <unicode hex="001E"/>
  <outline>
    <contour>
      <point x="294" y="0" type="line"/>
      <point x="623" y="0" type="line"/>
      <point x="623" y="59" type="line"/>
      <point x="471" y="74" type="line"/>
      <point x="438" y="74" type="line"/>
      <point x="294" y="59" type="line"/>
    </contour>
    <contour>
      <point x="359" y="0" type="curve"/>
      <point x="563" y="0" type="line"/>
      <point x="560" y="103"/>
      <point x="560" y="207"/>
      <point x="560" y="311" type="curve" smooth="yes"/>
      <point x="560" y="342" type="line" smooth="yes"/>
      <point x="560" y="447"/>
      <point x="560" y="551"/>
      <point x="563" y="652" type="curve"/>
      <point x="359" y="652" type="line"/>
      <point x="362" y="549"/>
      <point x="362" y="445"/>
      <point x="362" y="342" type="curve" smooth="yes"/>
      <point x="362" y="310" type="line" smooth="yes"/>
      <point x="362" y="205"/>
      <point x="362" y="101"/>
    </contour>
    <contour>
      <point x="461" y="304" type="line"/>
      <point x="827" y="304" type="line"/>
      <point x="827" y="367" type="line"/>
      <point x="461" y="367" type="line"/>
    </contour>
    <contour>
      <point x="575" y="755" type="curve" smooth="yes"/>
      <point x="536" y="755"/>
      <point x="515" y="788"/>
      <point x="515" y="819" type="curve" smooth="yes"/>
      <point x="515" y="852"/>
      <point x="536" y="883"/>
      <point x="575" y="883" type="curve" smooth="yes"/>
      <point x="614" y="883"/>
      <point x="635" y="852"/>
      <point x="635" y="819" type="curve" smooth="yes"/>
      <point x="635" y="788"/>
      <point x="614" y="755"/>
    </contour>
    <contour>
      <point x="575" y="699" type="curve" smooth="yes"/>
      <point x="647" y="699"/>
      <point x="702" y="743"/>
      <point x="702" y="819" type="curve" smooth="yes"/>
      <point x="702" y="895"/>
      <point x="647" y="939"/>
      <point x="575" y="939" type="curve" smooth="yes"/>
      <point x="503" y="939"/>
      <point x="448" y="892"/>
      <point x="448" y="819" type="curve" smooth="yes"/>
      <point x="448" y="746"/>
      <point x="503" y="699"/>
    </contour>
    <contour>
      <point x="665" y="0" type="line"/>
      <point x="994" y="0" type="line"/>
      <point x="994" y="59" type="line"/>
      <point x="845" y="74" type="line"/>
      <point x="814" y="74" type="line"/>
      <point x="665" y="59" type="line"/>
    </contour>
    <contour>
      <point x="725" y="0" type="curve"/>
      <point x="929" y="0" type="line"/>
      <point x="926" y="103"/>
      <point x="926" y="207"/>
      <point x="926" y="310" type="curve" smooth="yes"/>
      <point x="926" y="342" type="line" smooth="yes"/>
      <point x="926" y="447"/>
      <point x="926" y="551"/>
      <point x="929" y="652" type="curve"/>
      <point x="725" y="652" type="line"/>
      <point x="728" y="549"/>
      <point x="728" y="445"/>
      <point x="728" y="342" type="curve" smooth="yes"/>
      <point x="728" y="311" type="line" smooth="yes"/>
      <point x="728" y="205"/>
      <point x="728" y="101"/>
    </contour>
    <contour>
      <point x="294" y="593" type="line"/>
      <point x="438" y="578" type="line"/>
      <point x="471" y="578" type="line"/>
      <point x="623" y="593" type="line"/>
      <point x="623" y="652" type="line"/>
      <point x="294" y="652" type="line"/>
    </contour>
    <contour>
      <point x="665" y="593" type="line"/>
      <point x="814" y="578" type="line"/>
      <point x="845" y="578" type="line"/>
      <point x="994" y="593" type="line"/>
      <point x="994" y="652" type="line"/>
      <point x="665" y="652" type="line"/>
    </contour>
  </outline>
</glyph>
<glyph name="uni001E" format="2">
  <advance width="572"/>
  <unicode hex="001E"/>
  <outline>
    <contour>
      <point x="28" y="0" type="line"/>
      <point x="367" y="0" type="line"/>
      <point x="367" y="59" type="line"/>
      <point x="212" y="74" type="line"/>
      <point x="179" y="74" type="line"/>
      <point x="28" y="59" type="line"/>
    </contour>
    <contour>
      <point x="412" y="118" type="line"/>
      <point x="536" y="118" type="line"/>
      <point x="542" y="326" type="line"/>
      <point x="406" y="326" type="line"/>
    </contour>
    <contour>
      <point x="95" y="0" type="curve"/>
      <point x="299" y="0" type="line"/>
      <point x="296" y="103"/>
      <point x="296" y="207"/>
      <point x="296" y="311" type="curve" smooth="yes"/>
      <point x="296" y="342" type="line" smooth="yes"/>
      <point x="296" y="447"/>
      <point x="296" y="551"/>
      <point x="299" y="652" type="curve"/>
      <point x="95" y="652" type="line"/>
      <point x="98" y="549"/>
      <point x="98" y="445"/>
      <point x="98" y="342" type="curve" smooth="yes"/>
      <point x="98" y="310" type="line" smooth="yes"/>
      <point x="98" y="205"/>
      <point x="98" y="101"/>
    </contour>
    <contour>
      <point x="28" y="593" type="line"/>
      <point x="179" y="578" type="line"/>
      <point x="212" y="578" type="line"/>
      <point x="367" y="593" type="line"/>
      <point x="367" y="652" type="line"/>
      <point x="28" y="652" type="line"/>
    </contour>
  </outline>
</glyph>
<glyph name="uni001E" format="2">
  <advance width="1324"/>
  <unicode hex="001E"/>
  <outline>
    <contour>
      <point x="481" y="673" type="curve" smooth="yes"/>
      <point x="526" y="673"/>
      <point x="565" y="701"/>
      <point x="565" y="752" type="curve" smooth="yes"/>
      <point x="565" y="802"/>
      <point x="526" y="831"/>
      <point x="481" y="831" type="curve" smooth="yes"/>
      <point x="438" y="831"/>
      <point x="397" y="802"/>
      <point x="397" y="752" type="curve" smooth="yes"/>
      <point x="397" y="701"/>
      <point x="438" y="673"/>
    </contour>
    <contour>
      <point x="713" y="673" type="curve" smooth="yes"/>
      <point x="758" y="673"/>
      <point x="797" y="701"/>
      <point x="797" y="752" type="curve" smooth="yes"/>
      <point x="797" y="802"/>
      <point x="758" y="831"/>
      <point x="713" y="831" type="curve" smooth="yes"/>
      <point x="670" y="831"/>
      <point x="629" y="802"/>
      <point x="629" y="752" type="curve" smooth="yes"/>
      <point x="629" y="701"/>
      <point x="670" y="673"/>
    </contour>
    <contour>
      <point x="589" y="-152" type="curve" smooth="yes"/>
      <point x="645" y="-152"/>
      <point x="709" y="-132"/>
      <point x="765" y="-63" type="curve" smooth="yes"/>
      <point x="809" y="-9"/>
      <point x="831" y="53"/>
      <point x="831" y="185" type="curve" smooth="yes"/>
      <point x="831" y="355" type="line" smooth="yes"/>
      <point x="831" y="455"/>
      <point x="831" y="555"/>
      <point x="834" y="652" type="curve"/>
      <point x="638" y="652" type="line"/>
      <point x="642" y="373"/>
      <point x="643" y="261"/>
      <point x="643" y="187" type="curve" smooth="yes"/>
      <point x="643" y="92"/>
      <point x="651" y="-4"/>
      <point x="655" y="-99" type="curve"/>
      <point x="655" y="-106" type="line"/>
      <point x="667" y="-106" type="line"/>
      <point x="667" y="-89" type="line"/>
      <point x="617" y="-51" type="line" smooth="yes"/>
      <point x="581" y="-23"/>
      <point x="567" y="-13"/>
      <point x="531" y="-13" type="curve" smooth="yes"/>
      <point x="495" y="-13"/>
      <point x="467" y="-29"/>
      <point x="457" y="-78" type="curve"/>
      <point x="464" y="-129"/>
      <point x="507" y="-152"/>
    </contour>
    <contour>
      <point x="553" y="593" type="line"/>
      <point x="700" y="578" type="line"/>
      <point x="746" y="578" type="line"/>
      <point x="902" y="593" type="line"/>
      <point x="902" y="652" type="line"/>
      <point x="553" y="652" type="line"/>
    </contour>
  </outline>
</glyph>
<glyph name="uni001E" format="2">
  <advance width="1214"/>
  <unicode hex="001E"/>
  <outline>
    <contour>
      <point x="10" y="0" type="line"/>
      <point x="262" y="0" type="line"/>
      <point x="262" y="59" type="line"/>
      <point x="163" y="74" type="line"/>
      <point x="131" y="74" type="line"/>
      <point x="10" y="59" type="line"/>
    </contour>
    <contour>
      <point x="32" y="593" type="line"/>
      <point x="163" y="578" type="line"/>
      <point x="181" y="578" type="line"/>
      <point x="179" y="652" type="line"/>
      <point x="32" y="652" type="line"/>
    </contour>
    <contour>
      <point x="1057" y="188" type="curve" smooth="yes"/>
      <point x="1018" y="188"/>
      <point x="997" y="221"/>
      <point x="997" y="252" type="curve" smooth="yes"/>
      <point x="997" y="285"/>
      <point x="1018" y="316"/>
      <point x="1057" y="316" type="curve" smooth="yes"/>
      <point x="1096" y="316"/>
      <point x="1117" y="285"/>
      <point x="1117" y="252" type="curve" smooth="yes"/>
      <point x="1117" y="221"/>
      <point x="1096" y="188"/>
    </contour>
    <contour>
      <point x="1057" y="132" type="curve" smooth="yes"/>
      <point x="1129" y="132"/>
      <point x="1184" y="176"/>
      <point x="1184" y="252" type="curve" smooth="yes"/>
      <point x="1184" y="328"/>
      <point x="1129" y="372"/>
      <point x="1057" y="372" type="curve" smooth="yes"/>
      <point x="985" y="372"/>
      <point x="930" y="325"/>
      <point x="930" y="252" type="curve" smooth="yes"/>
      <point x="930" y="179"/>
      <point x="985" y="132"/>
    </contour>
    <contour>
      <point x="109" y="0" type="line"/>
      <point x="179" y="0" type="line"/>
      <point x="179" y="287" type="line"/>
      <point x="172" y="652" type="line"/>
      <point x="109" y="652" type="line"/>
    </contour>
    <contour>
      <point x="350" y="0" type="line"/>
      <point x="438" y="0" type="line"/>
      <point x="626" y="561" type="line"/>
      <point x="640" y="602" type="line"/>
      <point x="657" y="602" type="line"/>
      <point x="657" y="652" type="line"/>
      <point x="586" y="652" type="line"/>
      <point x="447" y="231" type="line"/>
      <point x="440" y="209" type="line"/>
      <point x="473" y="209" type="line"/>
      <point x="318" y="652" type="line"/>
      <point x="127" y="652" type="line"/>
      <point x="127" y="602" type="line"/>
      <point x="135" y="602" type="line"/>
    </contour>
    <contour>
      <point x="528" y="0" type="line"/>
      <point x="866" y="0" type="line"/>
      <point x="866" y="59" type="line"/>
      <point x="715" y="74" type="line"/>
      <point x="659" y="74" type="line"/>
      <point x="528" y="59" type="line"/>
    </contour>
    <contour>
      <point x="595" y="0" type="curve"/>
      <point x="799" y="0" type="line"/>
      <point x="796" y="101"/>
      <point x="796" y="205"/>
      <point x="796" y="310" type="curve" smooth="yes"/>
      <point x="796" y="342" type="line" smooth="yes"/>
      <point x="796" y="445"/>
      <point x="796" y="549"/>
      <point x="799" y="652" type="curve"/>
      <point x="603" y="652" type="line"/>
      <point x="598" y="281" type="line" smooth="yes"/>
      <point x="597" y="207"/>
      <point x="598" y="103"/>
    </contour>
    <contour>
      <point x="697" y="578" type="line"/>
      <point x="715" y="578" type="line"/>
      <point x="861" y="593" type="line"/>
      <point x="861" y="652" type="line"/>
      <point x="697" y="652" type="line"/>
    </contour>
  </outline>
</glyph>
<glyph name="uni001E" format="2">
  <advance width="1111"/>
  <unicode hex="001E"/>
  <outline>
    <contour>
      <point x="170" y="0" type="line"/>
      <point x="443" y="0" type="line"/>
      <point x="443" y="59" type="line"/>
      <point x="309" y="74" type="line"/>
      <point x="277" y="74" type="line"/>
      <point x="170" y="59" type="line"/>
    </contour>
    <contour>
      <point x="255" y="0" type="line"/>
      <point x="325" y="0" type="line"/>
      <point x="325" y="326" type="line"/>
      <point x="325" y="624" type="line"/>
      <point x="255" y="624" type="line"/>
    </contour>
    <contour>
      <point x="574" y="593" type="line"/>
      <point x="714" y="578" type="line"/>
      <point x="745" y="578" type="line"/>
      <point x="847" y="593" type="line"/>
      <point x="847" y="652" type="line"/>
      <point x="574" y="652" type="line"/>
    </contour>
    <contour>
      <point x="416" y="666" type="line"/>
      <point x="540" y="666" type="line"/>
      <point x="546" y="874" type="line"/>
      <point x="410" y="874" type="line"/>
    </contour>
    <contour>
      <point x="657" y="0" type="line"/>
      <point x="762" y="0" type="line"/>
      <point x="762" y="652" type="line"/>
      <point x="692" y="652" type="line"/>
      <point x="692" y="386" type="line"/>
      <point x="692" y="256" type="line"/>
      <point x="709" y="262" type="line"/>
      <point x="433" y="652" type="line"/>
      <point x="180" y="652" type="line"/>
      <point x="180" y="592" type="line"/>
      <point x="246" y="587" type="line"/>
      <point x="306" y="498" type="line"/>
      <point x="311" y="498" type="line"/>
    </contour>
  </outline>
</glyph>
<glyph name="uni001E" format="2">
  <advance width="1202"/>
  <unicode hex="001E"/>
  <outline>
    <contour>
      <point x="856" y="148" type="curve" smooth="yes"/>
      <point x="901" y="148"/>
      <point x="940" y="176"/>
      <point x="940" y="227" type="curve" smooth="yes"/>
      <point x="940" y="277"/>
      <point x="901" y="306"/>
      <point x="856" y="306" type="curve" smooth="yes"/>
      <point x="813" y="306"/>
      <point x="772" y="277"/>
      <point x="772" y="227" type="curve" smooth="yes"/>
      <point x="772" y="176"/>
      <point x="813" y="148"/>
    </contour>
    <contour>
      <point x="1088" y="148" type="curve" smooth="yes"/>
      <point x="1133" y="148"/>
      <point x="1172" y="176"/>
      <point x="1172" y="227" type="curve" smooth="yes"/>
      <point x="1172" y="277"/>
      <point x="1133" y="306"/>
      <point x="1088" y="306" type="curve" smooth="yes"/>
      <point x="1045" y="306"/>
      <point x="1004" y="277"/>
      <point x="1004" y="227" type="curve" smooth="yes"/>
      <point x="1004" y="176"/>
      <point x="1045" y="148"/>
    </contour>
    <contour>
      <point x="350" y="-20" type="curve" smooth="yes"/>
      <point x="519" y="-20"/>
      <point x="672" y="91"/>
      <point x="672" y="326" type="curve" smooth="yes"/>
      <point x="672" y="561"/>
      <point x="518" y="672"/>
      <point x="350" y="672" type="curve" smooth="yes"/>
      <point x="182" y="672"/>
      <point x="28" y="561"/>
      <point x="28" y="326" type="curve" smooth="yes"/>
      <point x="28" y="91"/>
      <point x="181" y="-20"/>
    </contour>
    <contour>
      <point x="350" y="41" type="curve" smooth="yes"/>
      <point x="265" y="41"/>
      <point x="233" y="154"/>
      <point x="233" y="326" type="curve" smooth="yes"/>
      <point x="233" y="497"/>
      <point x="265" y="612"/>
      <point x="350" y="612" type="curve" smooth="yes"/>
      <point x="435" y="612"/>
      <point x="467" y="497"/>
      <point x="467" y="326" type="curve" smooth="yes"/>
      <point x="467" y="154"/>
      <point x="435" y="41"/>
    </contour>
  </outline>
</glyph>
<glyph name="uni001E" format="2">
  <advance width="1565"/>
  <unicode hex="001E"/>
  <outline>
    <contour>
      <point x="778" y="-20" type="curve" smooth="yes"/>
      <point x="955" y="-20"/>
      <point x="1052" y="74"/>
      <point x="1052" y="287" type="curve" smooth="yes"/>
      <point x="1052" y="652" type="line"/>
      <point x="981" y="652" type="line"/>
      <point x="981" y="277" type="line" smooth="yes"/>
      <point x="981" y="137"/>
      <point x="929" y="79"/>
      <point x="849" y="79" type="curve" smooth="yes"/>
      <point x="757" y="79"/>
      <point x="716" y="134"/>
      <point x="716" y="280" type="curve" smooth="yes"/>
      <point x="716" y="356" type="line" smooth="yes"/>
      <point x="716" y="455"/>
      <point x="716" y="555"/>
      <point x="719" y="652" type="curve"/>
      <point x="515" y="652" type="line"/>
      <point x="518" y="553"/>
      <point x="518" y="453"/>
      <point x="518" y="356" type="curve" smooth="yes"/>
      <point x="518" y="247" type="line" smooth="yes"/>
      <point x="518" y="50"/>
      <point x="629" y="-20"/>
    </contour>
    <contour>
      <point x="448" y="593" type="line"/>
      <point x="604" y="578" type="line"/>
      <point x="636" y="578" type="line"/>
      <point x="792" y="593" type="line"/>
      <point x="792" y="652" type="line"/>
      <point x="448" y="652" type="line"/>
    </contour>
    <contour>
      <point x="579" y="673" type="curve" smooth="yes"/>
      <point x="624" y="673"/>
      <point x="663" y="701"/>
      <point x="663" y="752" type="curve" smooth="yes"/>
      <point x="663" y="802"/>
      <point x="624" y="831"/>
      <point x="579" y="831" type="curve" smooth="yes"/>
      <point x="536" y="831"/>
      <point x="495" y="802"/>
      <point x="495" y="752" type="curve" smooth="yes"/>
      <point x="495" y="701"/>
      <point x="536" y="673"/>
    </contour>
    <contour>
      <point x="811" y="673" type="curve" smooth="yes"/>
      <point x="856" y="673"/>
      <point x="895" y="701"/>
      <point x="895" y="752" type="curve" smooth="yes"/>
      <point x="895" y="802"/>
      <point x="856" y="831"/>
      <point x="811" y="831" type="curve" smooth="yes"/>
      <point x="768" y="831"/>
      <point x="727" y="802"/>
      <point x="727" y="752" type="curve" smooth="yes"/>
      <point x="727" y="701"/>
      <point x="768" y="673"/>
    </contour>
    <contour>
      <point x="895" y="593" type="line"/>
      <point x="1000" y="586" type="line"/>
      <point x="1033" y="586" type="line"/>
      <point x="1133" y="593" type="line"/>
      <point x="1133" y="652" type="line"/>
      <point x="895" y="652" type="line"/>
    </contour>
  </outline>
</glyph>
<glyph name="uni001E" format="2">
  <advance width="959"/>
  <unicode hex="001E"/>
  <outline>
    <contour>
      <point x="837" y="145" type="curve" smooth="yes"/>
      <point x="888" y="145"/>
      <point x="929" y="181"/>
      <point x="929" y="231" type="curve" smooth="yes"/>
      <point x="929" y="281"/>
      <point x="888" y="317"/>
      <point x="837" y="317" type="curve" smooth="yes"/>
      <point x="786" y="317"/>
      <point x="745" y="281"/>
      <point x="745" y="231" type="curve" smooth="yes"/>
      <point x="745" y="181"/>
      <point x="786" y="145"/>
    </contour>
    <contour>
      <point x="263" y="0" type="line"/>
      <point x="383" y="0" type="line"/>
      <point x="612" y="652" type="line"/>
      <point x="543" y="652" type="line"/>
      <point x="386" y="188" type="line"/>
      <point x="381" y="174" type="line"/>
      <point x="400" y="174" type="line"/>
      <point x="246" y="652" type="line"/>
      <point x="33" y="652" type="line"/>
    </contour>
    <contour>
      <point x="5" y="593" type="line"/>
      <point x="156" y="578" type="line"/>
      <point x="197" y="578" type="line"/>
      <point x="348" y="598" type="line"/>
      <point x="348" y="652" type="line"/>
      <point x="5" y="652" type="line"/>
    </contour>
    <contour>
      <point x="445" y="598" type="line"/>
      <point x="554" y="578" type="line"/>
      <point x="567" y="578" type="line"/>
      <point x="656" y="593" type="line"/>
      <point x="656" y="652" type="line"/>
      <point x="445" y="652" type="line"/>
    </contour>
  </outline>
</glyph>
<glyph name="uni001E" format="2">
  <advance width="1006"/>
  <unicode hex="001E"/>
  <outline>
    <contour>
      <point x="6" y="0" type="line"/>
      <point x="212" y="0" type="line"/>
      <point x="212" y="59" type="line"/>
      <point x="117" y="65" type="line"/>
      <point x="91" y="65" type="line"/>
      <point x="6" y="59" type="line"/>
    </contour>
    <contour>
      <point x="849" y="188" type="curve" smooth="yes"/>
      <point x="810" y="188"/>
      <point x="789" y="221"/>
      <point x="789" y="252" type="curve" smooth="yes"/>
      <point x="789" y="285"/>
      <point x="810" y="316"/>
      <point x="849" y="316" type="curve" smooth="yes"/>
      <point x="888" y="316"/>
      <point x="909" y="285"/>
      <point x="909" y="252" type="curve" smooth="yes"/>
      <point x="909" y="221"/>
      <point x="888" y="188"/>
    </contour>
    <contour>
      <point x="849" y="132" type="curve" smooth="yes"/>
      <point x="921" y="132"/>
      <point x="976" y="176"/>
      <point x="976" y="252" type="curve" smooth="yes"/>
      <point x="976" y="328"/>
      <point x="921" y="372"/>
      <point x="849" y="372" type="curve" smooth="yes"/>
      <point x="777" y="372"/>
      <point x="722" y="325"/>
      <point x="722" y="252" type="curve" smooth="yes"/>
      <point x="722" y="179"/>
      <point x="777" y="132"/>
    </contour>
    <contour>
      <point x="33" y="0" type="line"/>
      <point x="117" y="0" type="line"/>
      <point x="298" y="288" type="line"/>
      <point x="327" y="334" type="line"/>
      <point x="335" y="334" type="line"/>
      <point x="272" y="354" type="line"/>
    </contour>
    <contour>
      <point x="303" y="0" type="line"/>
      <point x="651" y="0" type="line"/>
      <point x="651" y="59" type="line"/>
      <point x="501" y="74" type="line"/>
      <point x="446" y="74" type="line"/>
      <point x="303" y="59" type="line"/>
    </contour>
    <contour>
      <point x="377" y="332" type="line"/>
      <point x="584" y="652" type="line"/>
      <point x="500" y="652" type="line"/>
      <point x="354" y="405" type="line"/>
      <point x="325" y="355" type="line"/>
      <point x="318" y="355" type="line"/>
    </contour>
    <contour>
      <point x="406" y="0" type="line"/>
      <point x="623" y="0" type="line"/>
      <point x="248" y="652" type="line"/>
      <point x="31" y="652" type="line"/>
    </contour>
    <contour>
      <point x="8" y="593" type="line"/>
      <point x="134" y="578" type="line"/>
      <point x="196" y="578" type="line"/>
      <point x="334" y="593" type="line"/>
      <point x="334" y="652" type="line"/>
      <point x="8" y="652" type="line"/>
    </contour>
    <contour>
      <point x="412" y="593" type="line"/>
      <point x="502" y="588" type="line"/>
      <point x="529" y="588" type="line"/>
      <point x="613" y="593" type="line"/>
      <point x="613" y="652" type="line"/>
      <point x="412" y="652" type="line"/>
    </contour>
  </outline>
</glyph>
<glyph name="uni001E" format="2">
  <advance width="1073"/>
  <unicode hex="001E"/>
  <outline>
    <contour>
      <point x="296" y="0" type="line"/>
      <point x="655" y="0" type="line"/>
      <point x="655" y="59" type="line"/>
      <point x="500" y="74" type="line"/>
      <point x="447" y="74" type="line"/>
      <point x="296" y="59" type="line"/>
    </contour>
    <contour>
      <point x="373" y="0" type="curve"/>
      <point x="577" y="0" type="line"/>
      <point x="574" y="93"/>
      <point x="574" y="148"/>
      <point x="574" y="313" type="curve"/>
      <point x="376" y="313" type="line"/>
      <point x="376" y="146"/>
      <point x="376" y="91"/>
    </contour>
    <contour>
      <point x="402" y="666" type="line"/>
      <point x="526" y="666" type="line"/>
      <point x="532" y="874" type="line"/>
      <point x="396" y="874" type="line"/>
    </contour>
    <contour>
      <point x="398" y="211" type="line"/>
      <point x="533" y="211" type="line"/>
      <point x="752" y="652" type="line"/>
      <point x="678" y="652" type="line"/>
      <point x="533" y="333" type="line"/>
      <point x="525" y="316" type="line"/>
      <point x="557" y="316" type="line"/>
      <point x="409" y="652" type="line"/>
      <point x="183" y="652" type="line"/>
    </contour>
    <contour>
      <point x="167" y="593" type="line"/>
      <point x="327" y="578" type="line"/>
      <point x="380" y="578" type="line"/>
      <point x="506" y="593" type="line"/>
      <point x="506" y="652" type="line"/>
      <point x="167" y="652" type="line"/>
    </contour>
    <contour>
      <point x="585" y="593" type="line"/>
      <point x="673" y="578" type="line"/>
      <point x="698" y="578" type="line"/>
      <point x="783" y="593" type="line"/>
      <point x="783" y="652" type="line"/>
      <point x="585" y="652" type="line"/>
    </contour>
  </outline>
</glyph>
<glyph name="uni001E" format="2">
  <advance width="1066"/>
  <unicode hex="001E"/>
  <outline>
    <contour>
      <point x="720" y="151" type="curve" smooth="yes"/>
      <point x="765" y="151"/>
      <point x="804" y="179"/>
      <point x="804" y="230" type="curve" smooth="yes"/>
      <point x="804" y="280"/>
      <point x="765" y="309"/>
      <point x="720" y="309" type="curve" smooth="yes"/>
      <point x="677" y="309"/>
      <point x="636" y="280"/>
      <point x="636" y="230" type="curve" smooth="yes"/>
      <point x="636" y="179"/>
      <point x="677" y="151"/>
    </contour>
    <contour>
      <point x="952" y="151" type="curve" smooth="yes"/>
      <point x="997" y="151"/>
      <point x="1036" y="179"/>
      <point x="1036" y="230" type="curve" smooth="yes"/>
      <point x="1036" y="280"/>
      <point x="997" y="309"/>
      <point x="952" y="309" type="curve" smooth="yes"/>
      <point x="909" y="309"/>
      <point x="868" y="280"/>
      <point x="868" y="230" type="curve" smooth="yes"/>
      <point x="868" y="179"/>
      <point x="909" y="151"/>
    </contour>
    <contour>
      <point x="20" y="0" type="line"/>
      <point x="540" y="0" type="line"/>
      <point x="548" y="189" type="line"/>
      <point x="460" y="189" type="line"/>
      <point x="429" y="31" type="line"/>
      <point x="465" y="60" type="line"/>
      <point x="350" y="60" type="line"/>
      <point x="239" y="60" type="line"/>
      <point x="239" y="74" type="line"/>
      <point x="230" y="34" type="line"/>
      <point x="542" y="602" type="line"/>
      <point x="542" y="652" type="line"/>
      <point x="38" y="652" type="line"/>
      <point x="30" y="463" type="line"/>
      <point x="116" y="463" type="line"/>
      <point x="148" y="621" type="line"/>
      <point x="112" y="592" type="line"/>
      <point x="219" y="592" type="line"/>
      <point x="323" y="592" type="line"/>
      <point x="323" y="576" type="line"/>
      <point x="332" y="618" type="line"/>
      <point x="20" y="50" type="line"/>
    </contour>
  </outline>
</glyph>
<glyph name="uni001E" format="2">
  <advance width="1074"/>
  <unicode hex="001E"/>
  <outline>
    <contour>
      <point x="464" y="575" type="curve" smooth="yes"/>
      <point x="425" y="575"/>
      <point x="404" y="608"/>
      <point x="404" y="639" type="curve" smooth="yes"/>
      <point x="404" y="672"/>
      <point x="425" y="703"/>
      <point x="464" y="703" type="curve" smooth="yes"/>
      <point x="503" y="703"/>
      <point x="524" y="672"/>
      <point x="524" y="639" type="curve" smooth="yes"/>
      <point x="524" y="608"/>
      <point x="503" y="575"/>
    </contour>
    <contour>
      <point x="464" y="519" type="curve" smooth="yes"/>
      <point x="536" y="519"/>
      <point x="591" y="563"/>
      <point x="591" y="639" type="curve" smooth="yes"/>
      <point x="591" y="715"/>
      <point x="536" y="759"/>
      <point x="464" y="759" type="curve" smooth="yes"/>
      <point x="392" y="759"/>
      <point x="337" y="712"/>
      <point x="337" y="639" type="curve" smooth="yes"/>
      <point x="337" y="566"/>
      <point x="392" y="519"/>
    </contour>
    <contour>
      <point x="551" y="-16" type="curve" smooth="yes"/>
      <point x="652" y="-16"/>
      <point x="722" y="26"/>
      <point x="762" y="107" type="curve"/>
      <point x="722" y="139" type="line"/>
      <point x="695" y="107"/>
      <point x="659" y="92"/>
      <point x="616" y="92" type="curve" smooth="yes"/>
      <point x="542" y="92"/>
      <point x="484" y="153"/>
      <point x="484" y="271" type="curve" smooth="yes"/>
      <point x="484" y="401"/>
      <point x="547" y="449"/>
      <point x="593" y="449" type="curve" smooth="yes"/>
      <point x="626" y="449"/>
      <point x="649" y="442"/>
      <point x="679" y="429" type="curve"/>
      <point x="596" y="472" type="line"/>
      <point x="599" y="407" type="line" smooth="yes"/>
      <point x="603" y="319"/>
      <point x="643" y="293"/>
      <point x="685" y="293" type="curve" smooth="yes"/>
      <point x="725" y="293"/>
      <point x="748" y="311"/>
      <point x="761" y="351" type="curve"/>
      <point x="756" y="433"/>
      <point x="673" y="503"/>
      <point x="559" y="503" type="curve" smooth="yes"/>
      <point x="393" y="503"/>
      <point x="284" y="410"/>
      <point x="284" y="240" type="curve" smooth="yes"/>
      <point x="284" y="80"/>
      <point x="391" y="-16"/>
    </contour>
  </outline>
</glyph>
<glyph name="uni001E" format="2">
  <advance width="1362"/>
  <unicode hex="001E"/>
  <outline>
    <contour>
      <point x="494" y="526" type="curve" smooth="yes"/>
      <point x="539" y="526"/>
      <point x="578" y="554"/>
      <point x="578" y="605" type="curve" smooth="yes"/>
      <point x="578" y="655"/>
      <point x="539" y="684"/>
      <point x="494" y="684" type="curve" smooth="yes"/>
      <point x="451" y="684"/>
      <point x="410" y="655"/>
      <point x="410" y="605" type="curve" smooth="yes"/>
      <point x="410" y="554"/>
      <point x="451" y="526"/>
    </contour>
    <contour>
      <point x="726" y="526" type="curve" smooth="yes"/>
      <point x="771" y="526"/>
      <point x="810" y="554"/>
      <point x="810" y="605" type="curve" smooth="yes"/>
      <point x="810" y="655"/>
      <point x="771" y="684"/>
      <point x="726" y="684" type="curve" smooth="yes"/>
      <point x="683" y="684"/>
      <point x="642" y="655"/>
      <point x="642" y="605" type="curve" smooth="yes"/>
      <point x="642" y="554"/>
      <point x="683" y="526"/>
    </contour>
    <contour>
      <point x="704" y="-16" type="curve" smooth="yes"/>
      <point x="810" y="-16"/>
      <point x="876" y="24"/>
      <point x="921" y="107" type="curve"/>
      <point x="881" y="139" type="line"/>
      <point x="854" y="108"/>
      <point x="821" y="92"/>
      <point x="774" y="92" type="curve" smooth="yes"/>
      <point x="705" y="92"/>
      <point x="638" y="142"/>
      <point x="638" y="262" type="curve" smooth="yes"/>
      <point x="638" y="407"/>
      <point x="662" y="449"/>
      <point x="695" y="449" type="curve" smooth="yes"/>
      <point x="721" y="449"/>
      <point x="746" y="424"/>
      <point x="746" y="355" type="curve" smooth="yes"/>
      <point x="746" y="304"/>
      <point x="733" y="288"/>
      <point x="685" y="288" type="curve" smooth="yes"/>
      <point x="517" y="288" type="line"/>
      <point x="517" y="231" type="line"/>
      <point x="917" y="231" type="line"/>
      <point x="921" y="249"/>
      <point x="922" y="263"/>
      <point x="922" y="284" type="curve" smooth="yes"/>
      <point x="922" y="405"/>
      <point x="842" y="503"/>
      <point x="696" y="503" type="curve" smooth="yes"/>
      <point x="548" y="503"/>
      <point x="438" y="408"/>
      <point x="438" y="238" type="curve" smooth="yes"/>
      <point x="438" y="72"/>
      <point x="550" y="-16"/>
    </contour>
  </outline>
</glyph>
<glyph name="uni001E" format="2">
  <advance width="986"/>
  <unicode hex="001E"/>
  <outline>
    <contour>
      <point x="27" y="0" type="line"/>
      <point x="303" y="0" type="line"/>
      <point x="303" y="51" type="line"/>
      <point x="211" y="71" type="line"/>
      <point x="113" y="71" type="line"/>
      <point x="27" y="51" type="line"/>
    </contour>
    <contour>
      <point x="71" y="0" type="curve"/>
      <point x="267" y="0" type="line"/>
      <point x="265" y="45"/>
      <point x="264" y="148"/>
      <point x="264" y="210" type="curve" smooth="yes"/>
      <point x="264" y="366" type="line"/>
      <point x="261" y="379" type="line"/>
      <point x="261" y="571" type="line"/>
      <point x="265" y="710" type="line"/>
      <point x="248" y="721" type="line"/>
      <point x="20" y="676" type="line"/>
      <point x="20" y="631" type="line"/>
      <point x="74" y="621" type="line"/>
      <point x="74" y="210" type="line" smooth="yes"/>
      <point x="74" y="148"/>
      <point x="73" y="45"/>
    </contour>
    <contour>
      <point x="829" y="216" type="curve" smooth="yes"/>
      <point x="790" y="216"/>
      <point x="769" y="249"/>
      <point x="769" y="280" type="curve" smooth="yes"/>
      <point x="769" y="313"/>
      <point x="790" y="344"/>
      <point x="829" y="344" type="curve" smooth="yes"/>
      <point x="868" y="344"/>
      <point x="889" y="313"/>
      <point x="889" y="280" type="curve" smooth="yes"/>
      <point x="889" y="249"/>
      <point x="868" y="216"/>
    </contour>
    <contour>
      <point x="829" y="160" type="curve" smooth="yes"/>
      <point x="901" y="160"/>
      <point x="956" y="204"/>
      <point x="956" y="280" type="curve" smooth="yes"/>
      <point x="956" y="356"/>
      <point x="901" y="400"/>
      <point x="829" y="400" type="curve" smooth="yes"/>
      <point x="757" y="400"/>
      <point x="702" y="353"/>
      <point x="702" y="280" type="curve" smooth="yes"/>
      <point x="702" y="207"/>
      <point x="757" y="160"/>
    </contour>
    <contour>
      <point x="330" y="0" type="line"/>
      <point x="607" y="0" type="line"/>
      <point x="607" y="51" type="line"/>
      <point x="510" y="71" type="line"/>
      <point x="413" y="71" type="line"/>
      <point x="330" y="51" type="line"/>
    </contour>
    <contour>
      <point x="371" y="0" type="curve"/>
      <point x="567" y="0" type="line"/>
      <point x="565" y="45"/>
      <point x="564" y="146"/>
      <point x="564" y="210" type="curve" smooth="yes"/>
      <point x="564" y="336" type="line" smooth="yes"/>
      <point x="564" y="445"/>
      <point x="499" y="503"/>
      <point x="410" y="503" type="curve" smooth="yes"/>
      <point x="344" y="503"/>
      <point x="301" y="481"/>
      <point x="233" y="388" type="curve"/>
      <point x="214" y="388" type="line"/>
      <point x="221" y="311" type="line"/>
      <point x="256" y="360"/>
      <point x="300" y="396"/>
      <point x="332" y="396" type="curve" smooth="yes"/>
      <point x="365" y="396"/>
      <point x="374" y="377"/>
      <point x="374" y="323" type="curve" smooth="yes"/>
      <point x="374" y="210" type="line" smooth="yes"/>
      <point x="374" y="146"/>
      <point x="373" y="45"/>
    </contour>
  </outline>
</glyph>
<glyph name="uni001E" format="2">
  <advance width="1104"/>
  <unicode hex="001E"/>
  <outline>
    <contour>
      <point x="237" y="0" type="line"/>
      <point x="518" y="0" type="line"/>
      <point x="518" y="51" type="line"/>
      <point x="421" y="71" type="line"/>
      <point x="323" y="71" type="line"/>
      <point x="237" y="51" type="line"/>
    </contour>
    <contour>
      <point x="470" y="753" type="curve" smooth="yes"/>
      <point x="521" y="753"/>
      <point x="562" y="789"/>
      <point x="562" y="839" type="curve" smooth="yes"/>
      <point x="562" y="889"/>
      <point x="521" y="925"/>
      <point x="470" y="925" type="curve" smooth="yes"/>
      <point x="419" y="925"/>
      <point x="378" y="889"/>
      <point x="378" y="839" type="curve" smooth="yes"/>
      <point x="378" y="789"/>
      <point x="419" y="753"/>
    </contour>
    <contour>
      <point x="281" y="0" type="curve"/>
      <point x="477" y="0" type="line"/>
      <point x="475" y="32"/>
      <point x="474" y="155"/>
      <point x="474" y="220" type="curve" smooth="yes"/>
      <point x="474" y="571" type="line"/>
      <point x="478" y="710" type="line"/>
      <point x="461" y="721" type="line"/>
      <point x="230" y="676" type="line"/>
      <point x="230" y="631" type="line"/>
      <point x="284" y="621" type="line"/>
      <point x="284" y="210" type="line" smooth="yes"/>
      <point x="284" y="155"/>
      <point x="283" y="32"/>
    </contour>
    <contour>
      <point x="375" y="122" type="line"/>
      <point x="777" y="487" type="line"/>
      <point x="691" y="487" type="line"/>
      <point x="536" y="339" type="line"/>
      <point x="382" y="191" type="line"/>
      <point x="375" y="191" type="line"/>
    </contour>
    <contour>
      <point x="595" y="0" type="line"/>
      <point x="827" y="0" type="line"/>
      <point x="827" y="51" type="line"/>
      <point x="764" y="68" type="line"/>
      <point x="623" y="376" type="line"/>
      <point x="490" y="259" type="line"/>
    </contour>
    <contour>
      <point x="556" y="440" type="line"/>
      <point x="669" y="425" type="line"/>
      <point x="689" y="425" type="line"/>
      <point x="800" y="440" type="line"/>
      <point x="800" y="487" type="line"/>
      <point x="556" y="487" type="line"/>
    </contour>
  </outline>
</glyph>
<glyph name="uni001E" format="2">
  <advance width="1419"/>
  <unicode hex="001E"/>
  <outline>
    <contour>
      <point x="518" y="526" type="curve" smooth="yes"/>
      <point x="563" y="526"/>
      <point x="602" y="554"/>
      <point x="602" y="605" type="curve" smooth="yes"/>
      <point x="602" y="655"/>
      <point x="563" y="684"/>
      <point x="518" y="684" type="curve" smooth="yes"/>
      <point x="475" y="684"/>
      <point x="434" y="655"/>
      <point x="434" y="605" type="curve" smooth="yes"/>
      <point x="434" y="554"/>
      <point x="475" y="526"/>
    </contour>
    <contour>
      <point x="750" y="526" type="curve" smooth="yes"/>
      <point x="795" y="526"/>
      <point x="834" y="554"/>
      <point x="834" y="605" type="curve" smooth="yes"/>
      <point x="834" y="655"/>
      <point x="795" y="684"/>
      <point x="750" y="684" type="curve" smooth="yes"/>
      <point x="707" y="684"/>
      <point x="666" y="655"/>
      <point x="666" y="605" type="curve" smooth="yes"/>
      <point x="666" y="554"/>
      <point x="707" y="526"/>
    </contour>
    <contour>
      <point x="702" y="-16" type="curve" smooth="yes"/>
      <point x="873" y="-16"/>
      <point x="966" y="95"/>
      <point x="966" y="247" type="curve" smooth="yes"/>
      <point x="966" y="399"/>
      <point x="856" y="503"/>
      <point x="702" y="503" type="curve" smooth="yes"/>
      <point x="548" y="503"/>
      <point x="438" y="396"/>
      <point x="438" y="247" type="curve" smooth="yes"/>
      <point x="438" y="98"/>
      <point x="530" y="-16"/>
    </contour>
    <contour>
      <point x="702" y="39" type="curve" smooth="yes"/>
      <point x="658" y="39"/>
      <point x="638" y="98"/>
      <point x="638" y="244" type="curve" smooth="yes"/>
      <point x="638" y="389"/>
      <point x="658" y="448"/>
      <point x="702" y="448" type="curve" smooth="yes"/>
      <point x="746" y="448"/>
      <point x="766" y="389"/>
      <point x="766" y="244" type="curve" smooth="yes"/>
      <point x="766" y="98"/>
      <point x="746" y="39"/>
    </contour>
  </outline>
</glyph>
<glyph name="uni001E" format="2">
  <advance width="875"/>
  <unicode hex="001E"/>
  <outline>
    <contour>
      <point x="753" y="-36" type="curve" smooth="yes"/>
      <point x="804" y="-36"/>
      <point x="845" y="0"/>
      <point x="845" y="50" type="curve" smooth="yes"/>
      <point x="845" y="100"/>
      <point x="804" y="136"/>
      <point x="753" y="136" type="curve" smooth="yes"/>
      <point x="702" y="136"/>
      <point x="661" y="100"/>
      <point x="661" y="50" type="curve" smooth="yes"/>
      <point x="661" y="0"/>
      <point x="702" y="-36"/>
    </contour>
    <contour>
      <point x="27" y="-222" type="line"/>
      <point x="316" y="-222" type="line"/>
      <point x="316" y="-170" type="line"/>
      <point x="243" y="-150" type="line"/>
      <point x="116" y="-150" type="line"/>
      <point x="27" y="-170" type="line"/>
    </contour>
    <contour>
      <point x="71" y="-222" type="curve"/>
      <point x="264" y="-222" type="line"/>
      <point x="262" y="-126"/>
      <point x="261" y="-53"/>
      <point x="261" y="8" type="curve" smooth="yes"/>
      <point x="261" y="69" type="line"/>
      <point x="264" y="84" type="line"/>
      <point x="264" y="399" type="line"/>
      <point x="259" y="419" type="line"/>
      <point x="253" y="494" type="line"/>
      <point x="236" y="503" type="line"/>
      <point x="17" y="434" type="line"/>
      <point x="17" y="393" type="line"/>
      <point x="71" y="384" type="line"/>
      <point x="73" y="344"/>
      <point x="74" y="327"/>
      <point x="74" y="272" type="curve" smooth="yes"/>
      <point x="74" y="8" type="line" smooth="yes"/>
      <point x="74" y="-53"/>
      <point x="73" y="-126"/>
    </contour>
    <contour>
      <point x="384" y="-16" type="curve" smooth="yes"/>
      <point x="495" y="-16"/>
      <point x="601" y="82"/>
      <point x="601" y="246" type="curve" smooth="yes"/>
      <point x="601" y="417"/>
      <point x="513" y="503"/>
      <point x="403" y="503" type="curve" smooth="yes"/>
      <point x="329" y="503"/>
      <point x="272" y="469"/>
      <point x="223" y="400" type="curve"/>
      <point x="183" y="400" type="line"/>
      <point x="192" y="315" type="line"/>
      <point x="209" y="334"/>
      <point x="252" y="404"/>
      <point x="311" y="404" type="curve" smooth="yes"/>
      <point x="364" y="404"/>
      <point x="399" y="360"/>
      <point x="399" y="246" type="curve" smooth="yes"/>
      <point x="399" y="132"/>
      <point x="364" y="80"/>
      <point x="311" y="80" type="curve" smooth="yes"/>
      <point x="261" y="80"/>
      <point x="239" y="115"/>
      <point x="202" y="166" type="curve"/>
      <point x="193" y="86" type="line"/>
      <point x="221" y="86" type="line"/>
      <point x="258" y="21"/>
      <point x="305" y="-16"/>
    </contour>
  </outline>
</glyph>
<glyph name="uni001E" format="2">
  <advance width="828"/>
  <unicode hex="001E"/>
  <outline>
    <contour>
      <point x="21" y="0" type="line"/>
      <point x="339" y="0" type="line"/>
      <point x="339" y="51" type="line"/>
      <point x="249" y="71" type="line"/>
      <point x="111" y="71" type="line"/>
      <point x="21" y="51" type="line"/>
    </contour>
    <contour>
      <point x="671" y="138" type="curve" smooth="yes"/>
      <point x="632" y="138"/>
      <point x="611" y="171"/>
      <point x="611" y="202" type="curve" smooth="yes"/>
      <point x="611" y="235"/>
      <point x="632" y="266"/>
      <point x="671" y="266" type="curve" smooth="yes"/>
      <point x="710" y="266"/>
      <point x="731" y="235"/>
      <point x="731" y="202" type="curve" smooth="yes"/>
      <point x="731" y="171"/>
      <point x="710" y="138"/>
    </contour>
    <contour>
      <point x="671" y="82" type="curve" smooth="yes"/>
      <point x="743" y="82"/>
      <point x="798" y="126"/>
      <point x="798" y="202" type="curve" smooth="yes"/>
      <point x="798" y="278"/>
      <point x="743" y="322"/>
      <point x="671" y="322" type="curve" smooth="yes"/>
      <point x="599" y="322"/>
      <point x="544" y="275"/>
      <point x="544" y="202" type="curve" smooth="yes"/>
      <point x="544" y="129"/>
      <point x="599" y="82"/>
    </contour>
    <contour>
      <point x="67" y="0" type="curve"/>
      <point x="263" y="0" type="line"/>
      <point x="261" y="45"/>
      <point x="260" y="148"/>
      <point x="260" y="210" type="curve" smooth="yes"/>
      <point x="260" y="368" type="line"/>
      <point x="260" y="370" type="line"/>
      <point x="252" y="492" type="line"/>
      <point x="234" y="503" type="line"/>
      <point x="13" y="434" type="line"/>
      <point x="13" y="393" type="line"/>
      <point x="67" y="384" type="line"/>
      <point x="69" y="344"/>
      <point x="70" y="328"/>
      <point x="70" y="273" type="curve" smooth="yes"/>
      <point x="70" y="210" type="line" smooth="yes"/>
      <point x="70" y="148"/>
      <point x="69" y="45"/>
    </contour>
    <contour>
      <point x="260" y="273" type="line"/>
      <point x="269" y="326"/>
      <point x="305" y="380"/>
      <point x="331" y="404" type="curve"/>
      <point x="294" y="428" type="line"/>
      <point x="324" y="384" type="line" smooth="yes"/>
      <point x="350" y="346"/>
      <point x="375" y="329"/>
      <point x="408" y="329" type="curve" smooth="yes"/>
      <point x="448" y="329"/>
      <point x="481" y="360"/>
      <point x="484" y="414" type="curve"/>
      <point x="477" y="475"/>
      <point x="440" y="503"/>
      <point x="391" y="503" type="curve" smooth="yes"/>
      <point x="337" y="503"/>
      <point x="272" y="451"/>
      <point x="251" y="342" type="curve"/>
      <point x="216" y="342" type="line"/>
    </contour>
  </outline>
</glyph>
<glyph name="uni001E" format="2">
  <advance width="849"/>
  <unicode hex="001E"/>
  <outline>
    <contour>
      <point x="311" y="546" type="line"/>
      <point x="435" y="546" type="line"/>
      <point x="441" y="754" type="line"/>
      <point x="305" y="754" type="line"/>
    </contour>
    <contour>
      <point x="350" y="-16" type="curve" smooth="yes"/>
      <point x="496" y="-16"/>
      <point x="589" y="42"/>
      <point x="589" y="160" type="curve" smooth="yes"/>
      <point x="589" y="239"/>
      <point x="551" y="293"/>
      <point x="458" y="318" type="curve" smooth="yes"/>
      <point x="402" y="333" type="line" smooth="yes"/>
      <point x="333" y="352"/>
      <point x="322" y="372"/>
      <point x="322" y="393" type="curve" smooth="yes"/>
      <point x="322" y="427"/>
      <point x="351" y="444"/>
      <point x="389" y="444" type="curve" smooth="yes"/>
      <point x="437" y="444"/>
      <point x="454" y="436"/>
      <point x="491" y="414" type="curve"/>
      <point x="491" y="474" type="line"/>
      <point x="430" y="474" type="line"/>
      <point x="460" y="350" type="line"/>
      <point x="552" y="350" type="line"/>
      <point x="560" y="463" type="line"/>
      <point x="505" y="489"/>
      <point x="455" y="503"/>
      <point x="394" y="503" type="curve" smooth="yes"/>
      <point x="250" y="503"/>
      <point x="171" y="430"/>
      <point x="171" y="330" type="curve" smooth="yes"/>
      <point x="171" y="252"/>
      <point x="213" y="196"/>
      <point x="292" y="175" type="curve" smooth="yes"/>
      <point x="349" y="160" type="line" smooth="yes"/>
      <point x="416" y="142"/>
      <point x="430" y="122"/>
      <point x="430" y="95" type="curve" smooth="yes"/>
      <point x="430" y="57"/>
      <point x="400" y="43"/>
      <point x="350" y="43" type="curve" smooth="yes"/>
      <point x="305" y="43"/>
      <point x="271" y="57"/>
      <point x="224" y="83" type="curve"/>
      <point x="224" y="21" type="line"/>
      <point x="283" y="21" type="line"/>
      <point x="262" y="161" type="line"/>
      <point x="171" y="161" type="line"/>
      <point x="166" y="33" type="line"/>
      <point x="220" y="0"/>
      <point x="281" y="-16"/>
    </contour>
  </outline>
</glyph>
<glyph name="uni001E" format="2">
  <advance width="1487"/>
  <unicode hex="001E"/>
  <outline>
    <contour>
      <point x="544" y="-232" type="curve" smooth="yes"/>
      <point x="641" y="-232"/>
      <point x="682" y="-167"/>
      <point x="724" y="-59" type="curve" smooth="yes"/>
      <point x="935" y="487" type="line"/>
      <point x="865" y="487" type="line"/>
      <point x="804" y="312" type="line"/>
      <point x="717" y="62" type="line"/>
      <point x="713" y="49" type="line"/>
      <point x="682" y="-39" type="line" smooth="yes"/>
      <point x="659" y="-105"/>
      <point x="618" y="-154"/>
      <point x="578" y="-181" type="curve"/>
      <point x="610" y="-196" type="line"/>
      <point x="647" y="-181" type="line"/>
      <point x="616" y="-130" type="line" smooth="yes"/>
      <point x="589" y="-86"/>
      <point x="552" y="-80"/>
      <point x="525" y="-80" type="curve" smooth="yes"/>
      <point x="482" y="-80"/>
      <point x="445" y="-103"/>
      <point x="436" y="-153" type="curve"/>
      <point x="441" y="-197"/>
      <point x="489" y="-232"/>
    </contour>
    <contour>
      <point x="691" y="-67" type="line"/>
      <point x="778" y="137" type="line"/>
      <point x="771" y="158" type="line"/>
      <point x="653" y="487" type="line"/>
      <point x="450" y="487" type="line"/>
    </contour>
    <contour>
      <point x="536" y="510" type="curve" smooth="yes"/>
      <point x="581" y="510"/>
      <point x="620" y="538"/>
      <point x="620" y="589" type="curve" smooth="yes"/>
      <point x="620" y="639"/>
      <point x="581" y="668"/>
      <point x="536" y="668" type="curve" smooth="yes"/>
      <point x="493" y="668"/>
      <point x="452" y="639"/>
      <point x="452" y="589" type="curve" smooth="yes"/>
      <point x="452" y="538"/>
      <point x="493" y="510"/>
    </contour>
    <contour>
      <point x="768" y="510" type="curve" smooth="yes"/>
      <point x="813" y="510"/>
      <point x="852" y="538"/>
      <point x="852" y="589" type="curve" smooth="yes"/>
      <point x="852" y="639"/>
      <point x="813" y="668"/>
      <point x="768" y="668" type="curve" smooth="yes"/>
      <point x="725" y="668"/>
      <point x="684" y="639"/>
      <point x="684" y="589" type="curve" smooth="yes"/>
      <point x="684" y="538"/>
      <point x="725" y="510"/>
    </contour>
    <contour>
      <point x="430" y="440" type="line"/>
      <point x="518" y="424" type="line"/>
      <point x="655" y="424" type="line"/>
      <point x="733" y="441" type="line"/>
      <point x="733" y="487" type="line"/>
      <point x="430" y="487" type="line"/>
    </contour>
    <contour>
      <point x="787" y="440" type="line"/>
      <point x="862" y="425" type="line"/>
      <point x="881" y="425" type="line"/>
      <point x="973" y="440" type="line"/>
      <point x="973" y="487" type="line"/>
      <point x="787" y="487" type="line"/>
    </contour>
  </outline>
</glyph>
<glyph name="uni001E" format="2">
  <advance width="755"/>
  <unicode hex="001E"/>
  <outline>
    <contour>
      <point x="633" y="91" type="curve" smooth="yes"/>
      <point x="684" y="91"/>
      <point x="725" y="127"/>
      <point x="725" y="177" type="curve" smooth="yes"/>
      <point x="725" y="227"/>
      <point x="684" y="263"/>
      <point x="633" y="263" type="curve" smooth="yes"/>
      <point x="582" y="263"/>
      <point x="541" y="227"/>
      <point x="541" y="177" type="curve" smooth="yes"/>
      <point x="541" y="127"/>
      <point x="582" y="91"/>
    </contour>
    <contour>
      <point x="14" y="0" type="line"/>
      <point x="448" y="0" type="line"/>
      <point x="458" y="169" type="line"/>
      <point x="365" y="169" type="line"/>
      <point x="329" y="19" type="line"/>
      <point x="366" y="48" type="line"/>
      <point x="281" y="48" type="line"/>
      <point x="218" y="48" type="line"/>
      <point x="211" y="56" type="line"/>
      <point x="211" y="22" type="line"/>
      <point x="450" y="447" type="line"/>
      <point x="450" y="487" type="line"/>
      <point x="28" y="487" type="line"/>
      <point x="20" y="333" type="line"/>
      <point x="112" y="329" type="line"/>
      <point x="146" y="469" type="line"/>
      <point x="109" y="440" type="line"/>
      <point x="194" y="440" type="line"/>
      <point x="257" y="440" type="line"/>
      <point x="264" y="433" type="line"/>
      <point x="264" y="466" type="line"/>
      <point x="14" y="41" type="line"/>
    </contour>
  </outline>
</glyph>
